<?xml version="1.0" encoding="UTF-8"?>
<svg version="1.1" xmlns="http://www.w3.org/2000/svg" width="102" height="86">
<path d="M0 0 C33.66 0 67.32 0 102 0 C102 28.38 102 56.76 102 86 C68.34 86 34.68 86 0 86 C0 57.62 0 29.24 0 0 Z " fill="transparent" transform="translate(0,0)"/>
<path d="M0 0 C2.125 0.9375 2.125 0.9375 4 2 C2.59559574 6.85225386 0.43396594 10.91075806 -2.1875 15.1875 C-6.73904534 22.75980951 -11.05014175 30.44917632 -15.3125 38.1875 C-21.63741937 49.65055973 -28.19206976 60.95782652 -34.93115234 72.18188477 C-35.66475786 73.42975144 -36.3526441 74.70528821 -37 76 C-37.66 76 -38.32 76 -39 76 C-39 76.66 -39 77.32 -39 78 C-40.98 78.495 -40.98 78.495 -43 79 C-46.86360287 73.40913937 -50.44150084 67.6747075 -53.91455078 61.83422852 C-56.91144899 56.79970549 -59.95173564 51.79293213 -63.00654602 46.79333496 C-66.67932033 40.77981129 -70.32942154 34.75277359 -73.965271 28.71685791 C-74.96179105 27.06339761 -75.96058684 25.41130952 -76.95947266 23.75927734 C-78.69807981 20.86989759 -80.41535188 17.96908343 -82.125 15.0625 C-82.63973877 14.21155762 -83.15447754 13.36061523 -83.68481445 12.48388672 C-84.14202881 11.69643066 -84.59924316 10.90897461 -85.0703125 10.09765625 C-85.47008301 9.42226807 -85.86985352 8.74687988 -86.28173828 8.05102539 C-87.21245342 5.39333067 -86.73933487 3.67318128 -86 1 C-82.97312002 0.72785295 -79.97076151 0.53146891 -76.9375 0.375 C-75.66616211 0.24931641 -75.66616211 0.24931641 -74.36914062 0.12109375 C-71.6267071 0.01520829 -69.61041356 0.1332376 -67 1 C-63.92688295 3.89915962 -62.04660894 7.33172238 -60 11 C-59.37407959 12.04929687 -58.74815918 13.09859375 -58.10327148 14.1796875 C-56.11239081 17.53587793 -54.17564115 20.91850923 -52.25 24.3125 C-51.58508995 25.47747308 -50.91972722 26.64218792 -50.25390625 27.80664062 C-49.03571588 29.93785602 -47.81962374 32.07027332 -46.60644531 34.2043457 C-45.10192771 36.82261791 -43.56285202 39.41621461 -42 42 C-37.75117795 35.30242937 -33.73645805 28.48137701 -29.75 21.625 C-28.79480469 19.98724609 -28.79480469 19.98724609 -27.8203125 18.31640625 C-24.79972038 13.21854491 -24.79972038 13.21854491 -22 8 C-24.75938432 7.20858978 -24.75938432 7.20858978 -28 8 C-30.34863358 10.8673794 -31.90736974 14.13432278 -33.5625 17.4375 C-34.46470838 19.21511849 -35.38210063 20.98513365 -36.31640625 22.74609375 C-36.71287354 23.53685303 -37.10934082 24.3276123 -37.51782227 25.14233398 C-39 27 -39 27 -41.54272461 27.89086914 C-42.75907593 27.94488892 -42.75907593 27.94488892 -44 28 C-44.66 27.34 -45.32 26.68 -46 26 C-45.74130613 21.2400328 -43.26104514 17.48990992 -40.875 13.5 C-40.50890625 12.84902344 -40.1428125 12.19804687 -39.765625 11.52734375 C-37.01406519 6.89461551 -33.98912426 3.26720642 -29 1 C-26.14064206 0.46760057 -23.45719894 0.51535413 -20.5625 0.6875 C-19.83095703 0.71005859 -19.09941406 0.73261719 -18.34570312 0.75585938 C-16.56289645 0.81412103 -14.78116129 0.9037788 -13 1 C-12.18746468 3.80423776 -11.79558653 5.45039774 -12.828125 8.2265625 C-13.29734375 9.01804687 -13.7665625 9.80953125 -14.25 10.625 C-14.80171875 11.57375 -15.3534375 12.5225 -15.921875 13.5 C-16.40624023 14.31210937 -16.40624023 14.31210937 -16.90039062 15.140625 C-18.17087681 17.28894267 -19.40630907 19.45570295 -20.640625 21.625 C-21.59311885 23.29202745 -22.54624745 24.95869237 -23.5 26.625 C-23.95020508 27.41213379 -24.40041016 28.19926758 -24.86425781 29.01025391 C-27.61426324 33.76377807 -30.51462721 38.37205649 -33.60009766 42.9152832 C-35.82063766 46.22208319 -37.91162399 49.60869914 -40 53 C-42.26342773 52.8527832 -42.26342773 52.8527832 -45 52 C-46.94165039 49.57495117 -46.94165039 49.57495117 -48.78515625 46.35546875 C-49.12209 45.77758102 -49.45902374 45.1996933 -49.8061676 44.60429382 C-50.8859583 42.74449763 -51.94270871 40.87265949 -53 39 C-53.70645961 37.77846852 -54.41462031 36.5579192 -55.12451172 35.33837891 C-57.25077443 31.67544727 -59.34566163 27.99516376 -61.4375 24.3125 C-62.16322083 23.03960484 -62.8891316 21.76681795 -63.61523438 20.49414062 C-68.81780076 11.36439847 -68.81780076 11.36439847 -70 9 C-73.02934491 8.34227572 -73.02934491 8.34227572 -76 8 C-73.44511385 13.22485727 -70.74261205 18.26589923 -67.75 23.25 C-62.19738491 32.5878483 -56.82228538 42.02573359 -51.44628906 51.46582031 C-51.10877121 52.05810425 -50.77125336 52.65038818 -50.42350769 53.26062012 C-49.49859258 54.88400328 -48.57458375 56.5079027 -47.65063477 58.13183594 C-46.56158781 60.02417784 -45.440011 61.89821438 -44.28491211 63.75097656 C-43 66 -43 66 -43 68 C-40.13900304 65.46745586 -38.53361618 62.64042118 -36.6875 59.3125 C-35.99090562 58.0695705 -35.29286746 56.82744958 -34.59375 55.5859375 C-34.19542969 54.87791992 -33.79710937 54.16990234 -33.38671875 53.44042969 C-30.53068986 48.41422111 -27.60366548 43.42896882 -24.6875 38.4375 C-24.07672607 37.39053955 -23.46595215 36.3435791 -22.83666992 35.26489258 C-19.57681157 29.68127317 -19.57681157 29.68127317 -18 27 C-17.48284424 26.06679932 -16.96568848 25.13359863 -16.43286133 24.17211914 C-15.96001709 23.45531982 -15.48717285 22.73852051 -15 22 C-14.34 22 -13.68 22 -13 22 C-12.88068115 21.42403076 -12.7613623 20.84806152 -12.63842773 20.25463867 C-11.50625439 16.25631329 -9.1747624 12.86453734 -7.0625 9.3125 C-6.60681641 8.52810547 -6.15113281 7.74371094 -5.68164062 6.93554688 C-5.24142578 6.18982422 -4.80121094 5.44410156 -4.34765625 4.67578125 C-3.94554932 3.99427002 -3.54344238 3.31275879 -3.12915039 2.6105957 C-2 1 -2 1 0 0 Z " fill="#A3A3A3" transform="translate(92,4)"/>
<path d="M0 0 C2.125 0.9375 2.125 0.9375 4 2 C2.59559574 6.85225386 0.43396594 10.91075806 -2.1875 15.1875 C-6.73904534 22.75980951 -11.05014175 30.44917632 -15.3125 38.1875 C-21.63741937 49.65055973 -28.19206976 60.95782652 -34.93115234 72.18188477 C-35.66475786 73.42975144 -36.3526441 74.70528821 -37 76 C-37.66 76 -38.32 76 -39 76 C-39 76.66 -39 77.32 -39 78 C-40.98 78.495 -40.98 78.495 -43 79 C-46.85810334 73.41709752 -50.43339844 67.69204479 -53.89916992 61.85839844 C-56.6281924 57.27092777 -59.39580459 52.70821171 -62.18359375 48.15625 C-63.32457611 46.28978326 -64.46531518 44.42316797 -65.60604858 42.55654907 C-66.35958311 41.32538402 -67.11445378 40.0950356 -67.87075806 38.86557007 C-72.25631925 31.73415631 -76.42906896 24.58117771 -80 17 C-79 16 -79 16 -76.4375 15.9375 C-75.633125 15.958125 -74.82875 15.97875 -74 16 C-73.67 15.34 -73.34 14.68 -73 14 C-72.08203125 15.59114583 -71.1640625 17.18229167 -70.24609375 18.7734375 C-69.34515991 20.33481445 -69.34515991 20.33481445 -68.42602539 21.92773438 C-67.09001237 24.24381833 -65.75447702 26.56017024 -64.41967773 28.87695312 C-61.20192358 34.46038017 -57.97996228 40.04114638 -54.73454285 45.60855103 C-53.34271666 47.99668709 -51.95397716 50.3866111 -50.56546021 52.77667236 C-49.57130669 54.48486799 -48.57265954 56.19044577 -47.57397461 57.89599609 C-46.97335205 58.93062988 -46.37272949 59.96526367 -45.75390625 61.03125 C-45.22095947 61.94455078 -44.6880127 62.85785156 -44.13891602 63.79882812 C-43 66 -43 66 -43 68 C-40.13900304 65.46745586 -38.53361618 62.64042118 -36.6875 59.3125 C-35.99090562 58.0695705 -35.29286746 56.82744958 -34.59375 55.5859375 C-34.19542969 54.87791992 -33.79710937 54.16990234 -33.38671875 53.44042969 C-30.53068986 48.41422111 -27.60366548 43.42896882 -24.6875 38.4375 C-24.07672607 37.39053955 -23.46595215 36.3435791 -22.83666992 35.26489258 C-19.57681157 29.68127317 -19.57681157 29.68127317 -18 27 C-17.48284424 26.06679932 -16.96568848 25.13359863 -16.43286133 24.17211914 C-15.96001709 23.45531982 -15.48717285 22.73852051 -15 22 C-14.34 22 -13.68 22 -13 22 C-12.88068115 21.42403076 -12.7613623 20.84806152 -12.63842773 20.25463867 C-11.50625439 16.25631329 -9.1747624 12.86453734 -7.0625 9.3125 C-6.60681641 8.52810547 -6.15113281 7.74371094 -5.68164062 6.93554688 C-5.24142578 6.18982422 -4.80121094 5.44410156 -4.34765625 4.67578125 C-3.94554932 3.99427002 -3.54344238 3.31275879 -3.12915039 2.6105957 C-2 1 -2 1 0 0 Z " fill="#A6A6A6" transform="translate(92,4)"/>
<path d="M0 0 C0.84304688 -0.07927734 1.68609375 -0.15855469 2.5546875 -0.24023438 C5.28664256 -0.33144095 7.28242464 -0.19740246 9.875 0.6875 C12.93939473 3.59216001 14.82619952 7.02269856 16.875 10.6875 C17.50100098 11.73671631 18.12700195 12.78593262 18.77197266 13.86694336 C20.76256897 17.22331955 22.69935131 20.60599594 24.625 24 C25.28991005 25.16497308 25.95527278 26.32968792 26.62109375 27.49414062 C27.83928412 29.62535602 29.05537626 31.75777332 30.26855469 33.8918457 C31.33310433 35.74445329 32.45263828 37.56660232 33.62597656 39.35229492 C34.875 41.6875 34.875 41.6875 34.1875 44.875 C32.875 47.6875 32.875 47.6875 30.875 49.6875 C25.42505611 41.34045803 20.41474491 32.79165621 15.5 24.125 C14.76977226 22.84296165 14.03930472 21.56105986 13.30859375 20.27929688 C8.07401644 11.08553287 8.07401644 11.08553287 6.875 8.6875 C3.84565509 8.02977572 3.84565509 8.02977572 0.875 7.6875 C1.205 8.450625 1.535 9.21375 1.875 10 C2.875 12.6875 2.875 12.6875 2.875 15.6875 C0.895 16.0175 -1.085 16.3475 -3.125 16.6875 C-9.98604513 7.24569477 -9.98604513 7.24569477 -10.125 1.6875 C-7.85135027 -0.58614973 -3.04570193 0.12917039 0 0 Z " fill="#A5A5A5" transform="translate(15.125,4.3125)"/>
<path d="M0 0 C2.9118185 3.47981271 5.27402563 6.99658495 7.50390625 10.9453125 C7.82403183 11.50895508 8.14415741 12.07259766 8.47398376 12.65332031 C9.50755916 14.4749429 10.53511805 16.29987844 11.5625 18.125 C12.63206027 20.01519868 13.70299655 21.90461257 14.7741394 23.79391479 C15.4892458 25.05529686 16.20386664 26.31695432 16.91799927 27.57888794 C19.08382779 31.40195896 21.27611569 35.20799553 23.49609375 39 C24.00906006 39.87640137 24.52202637 40.75280273 25.05053711 41.65576172 C25.99732821 43.26867147 26.94722841 44.87976128 27.90063477 46.48876953 C31 51.78113303 31 51.78113303 31 54 C31.66 54 32.32 54 33 54 C34.32 56.64 35.64 59.28 37 62 C36.34 62 35.68 62 35 62 C35 62.66 35 63.32 35 64 C33.02 64.495 33.02 64.495 31 65 C27.14189666 59.41709752 23.56660156 53.69204479 20.10083008 47.85839844 C17.3718076 43.27092777 14.60419541 38.70821171 11.81640625 34.15625 C10.67542389 32.28978326 9.53468482 30.42316797 8.39395142 28.55654907 C7.64041689 27.32538402 6.88554622 26.0950356 6.12924194 24.86557007 C1.74368075 17.73415631 -2.42906896 10.58117771 -6 3 C-5 2 -5 2 -2.4375 1.9375 C-1.2309375 1.9684375 -1.2309375 1.9684375 0 2 C0 1.34 0 0.68 0 0 Z " fill="#A9A9A9" transform="translate(18,18)"/>
<path d="M0 0 C1 3 1 3 0.29077148 4.75830078 C-0.09522217 5.39751465 -0.48121582 6.03672852 -0.87890625 6.6953125 C-1.30276611 7.40695557 -1.72662598 8.11859863 -2.16333008 8.85180664 C-2.62505615 9.60196045 -3.08678223 10.35211426 -3.5625 11.125 C-4.02487061 11.89255615 -4.48724121 12.6601123 -4.96362305 13.45092773 C-7.75915625 18.06353307 -10.63344087 22.61327414 -13.68359375 27.0625 C-15.89050607 30.31065582 -17.94118272 33.65669937 -20 37 C-22.4375 36.625 -22.4375 36.625 -25 36 C-25.33 35.34 -25.66 34.68 -26 34 C-25.01538086 31.8203125 -25.01538086 31.8203125 -23.46484375 29.125 C-22.90216797 28.13886719 -22.33949219 27.15273438 -21.75976562 26.13671875 C-21.15841797 25.10160156 -20.55707031 24.06648438 -19.9375 23 C-19.36322266 21.99582031 -18.78894531 20.99164063 -18.19726562 19.95703125 C-16.47930359 16.96270284 -14.74250839 13.9800994 -13 11 C-12.43812988 10.02804688 -11.87625977 9.05609375 -11.29736328 8.0546875 C-10.76739746 7.14976563 -10.23743164 6.24484375 -9.69140625 5.3125 C-9.22033447 4.50425781 -8.7492627 3.69601563 -8.26391602 2.86328125 C-6.00804818 -0.46234814 -3.76470821 -0.09907127 0 0 Z " fill="#AFAFAF" transform="translate(72,20)"/>
<path d="M0 0 C2.64 0 5.28 0 8 0 C6.79157144 4.43090471 5.48331435 6.98112756 2 10 C2 9.34 2 8.68 2 8 C0.02 8.33 -1.96 8.66 -4 9 C-2.80100302 5.9168649 -1.52299523 2.93720508 0 0 Z " fill="#585858" transform="translate(70,12)"/>
<path d="M0 0 C5.30927425 -0.43518641 5.30927425 -0.43518641 8 0 C10.45321644 2.83653151 11 4.25123496 11 8 C9.02 8.33 7.04 8.66 5 9 C4.16396622 7.68921847 3.3312426 6.37632511 2.5 5.0625 C2.0359375 4.33160156 1.571875 3.60070312 1.09375 2.84765625 C0 1 0 1 0 0 Z " fill="#545454" transform="translate(7,12)"/>
<path d="M0 0 C2.03532927 1.68135896 2.95378863 2.87456913 3.875 5.375 C4.03570859 8.74988039 2.93065083 10.29708884 1 13 C-1.0625 11.375 -1.0625 11.375 -3 9 C-2.84079772 5.09954411 -2.17917221 3.26875831 0 0 Z " fill="#535353" transform="translate(54,66)"/>
<path d="M0 0 C1.32 1.32 2.64 2.64 4 4 C2.25 9.75 2.25 9.75 0 12 C-4 6.25 -4 6.25 -4 4 C-3.34 4 -2.68 4 -2 4 C-1.34 2.68 -0.68 1.36 0 0 Z " fill="#565656" transform="translate(46,42)"/>
<path d="M0 0 C1.18613892 0.00785522 1.18613892 0.00785522 2.39624023 0.01586914 C3.67724609 0.02070312 3.67724609 0.02070312 4.98413086 0.02563477 C5.88196289 0.03401367 6.77979492 0.04239258 7.70483398 0.05102539 C8.6065332 0.05553711 9.50823242 0.06004883 10.43725586 0.06469727 C12.67234712 0.07652315 14.90730835 0.09300319 17.14233398 0.11352539 C17.14233398 0.44352539 17.14233398 0.77352539 17.14233398 1.11352539 C15.51424805 1.15219727 15.51424805 1.15219727 13.85327148 1.19165039 C12.4079205 1.24796277 10.96260955 1.30530939 9.51733398 1.36352539 C8.80448242 1.37770508 8.09163086 1.39188477 7.35717773 1.40649414 C2.10801323 1.6472815 -0.72770167 2.85645572 -4.85766602 6.11352539 C-2.56663777 0.15685196 -2.56663777 0.15685196 0 0 Z " fill="#D9D9D9" transform="translate(61.857666015625,3.886474609375)"/>
</svg>
